<?xml version="1.0" standalone="no"?><svg xmlns="http://www.w3.org/2000/svg" viewBox="0 0 1440 320"><path fill="#e7008a" fill-opacity="0.8" d="M0,192L34.3,165.3C68.6,139,137,85,206,85.3C274.3,85,343,139,411,149.3C480,160,549,128,617,101.3C685.7,75,754,53,823,53.3C891.4,53,960,75,1029,112C1097.1,149,1166,203,1234,234.7C1302.9,267,1371,277,1406,282.7L1440,288L1440,0L1405.7,0C1371.4,0,1303,0,1234,0C1165.7,0,1097,0,1029,0C960,0,891,0,823,0C754.3,0,686,0,617,0C548.6,0,480,0,411,0C342.9,0,274,0,206,0C137.1,0,69,0,34,0L0,0Z"></path></svg>