<?xml version="1.0" standalone="no"?><svg xmlns="http://www.w3.org/2000/svg" viewBox="0 0 1440 320"><path fill="#e7008a" fill-opacity="0.8" d="M0,64L34.3,58.7C68.6,53,137,43,206,69.3C274.3,96,343,160,411,192C480,224,549,224,617,186.7C685.7,149,754,75,823,53.3C891.4,32,960,64,1029,85.3C1097.1,107,1166,117,1234,106.7C1302.9,96,1371,64,1406,48L1440,32L1440,0L1405.7,0C1371.4,0,1303,0,1234,0C1165.7,0,1097,0,1029,0C960,0,891,0,823,0C754.3,0,686,0,617,0C548.6,0,480,0,411,0C342.9,0,274,0,206,0C137.1,0,69,0,34,0L0,0Z"></path></svg>