<?xml version="1.0" standalone="no"?><svg xmlns="http://www.w3.org/2000/svg" viewBox="0 0 1440 320"><path fill="#FDCD4B" fill-opacity="0.7" d="M0,192L34.3,181.3C68.6,171,137,149,206,133.3C274.3,117,343,107,411,133.3C480,160,549,224,617,240C685.7,256,754,224,823,192C891.4,160,960,128,1029,128C1097.1,128,1166,160,1234,144C1302.9,128,1371,64,1406,32L1440,0L1440,0L1405.7,0C1371.4,0,1303,0,1234,0C1165.7,0,1097,0,1029,0C960,0,891,0,823,0C754.3,0,686,0,617,0C548.6,0,480,0,411,0C342.9,0,274,0,206,0C137.1,0,69,0,34,0L0,0Z"></path></svg>