<?xml version="1.0" standalone="no"?><svg xmlns="http://www.w3.org/2000/svg" viewBox="0 0 1440 320"><path fill="#FDDB6D" fill-opacity="1" d="M0,256L30,240C60,224,120,192,180,192C240,192,300,224,360,218.7C420,213,480,171,540,170.7C600,171,660,213,720,208C780,203,840,149,900,154.7C960,160,1020,224,1080,234.7C1140,245,1200,203,1260,197.3C1320,192,1380,224,1410,240L1440,256L1440,320L1410,320C1380,320,1320,320,1260,320C1200,320,1140,320,1080,320C1020,320,960,320,900,320C840,320,780,320,720,320C660,320,600,320,540,320C480,320,420,320,360,320C300,320,240,320,180,320C120,320,60,320,30,320L0,320Z"></path></svg>